<svg width="877" height="789" viewBox="0 0 877 789" fill="none" xmlns="http://www.w3.org/2000/svg">
<path fill-rule="evenodd" clip-rule="evenodd" d="M405.793 25.475C331.99 37.6163 262.499 99.8588 262.499 217.072V240.257L243.918 226.397C199.115 192.978 160.652 187.526 130.36 195.929C99.6473 204.45 74.9971 227.854 59.536 256.521C44.0085 285.311 38.6545 317.747 44.6751 342.653C47.6496 354.958 53.2989 365.099 61.5015 372.392C69.6365 379.626 80.9998 384.703 96.6041 385.762C103.012 386.197 107.854 391.746 107.419 398.155C106.984 404.565 101.437 409.408 95.029 408.973C74.9389 407.609 58.5019 400.852 46.049 389.779C33.6639 378.766 25.9379 364.128 22.0685 348.121C14.401 316.401 21.4837 278.076 39.0666 245.475C56.7158 212.751 85.8497 184.135 124.144 173.512C158.139 164.08 197.572 169.315 239.99 195.578C248.14 80.6475 321.613 15.7469 402.018 2.51953C482.857 -10.7791 570.487 28.6042 600.728 119.79C653.414 98.429 699.001 96.6758 736.673 108.495C777.171 121.2 807.103 149.149 826.232 182.159C845.302 215.068 853.932 253.47 851.638 288.176C849.355 322.716 836.043 355.27 809.254 373.952C803.986 377.626 796.737 376.332 793.064 371.062C789.391 365.792 790.684 358.542 795.953 354.868C815.033 341.562 826.434 316.844 828.431 286.641C830.416 256.604 822.895 222.791 806.11 193.825C789.382 164.959 763.753 141.372 729.712 130.692C695.736 120.033 651.958 121.79 598.086 146.24L585.487 151.959L582.023 138.56C559.524 51.5438 480.318 13.215 405.793 25.475Z" fill="white" fill-opacity="0.3"/>
</svg>
