<svg width="88" height="92" viewBox="0 0 88 92" fill="currentColor"
    xmlns="http://www.w3.org/2000/svg">
    <path
        d="M87.1926 38.1396C86.8526 34.3696 84.8226 28.7296 83.3526 25.6496C80.9926 20.6996 77.1826 15.1296 73.0626 11.5796C71.4326 10.1696 70.4626 9.23964 68.6326 7.93964C57.5426 0.0796447 43.2726 -2.25036 30.0926 2.32964C28.1026 3.01964 26.1326 3.86964 24.4026 4.77964C20.6326 6.76964 18.0326 8.66964 14.8926 11.4796C13.3026 12.9096 11.8626 14.4696 10.4626 16.1496C8.02262 19.0796 6.30262 22.0996 4.57262 25.5196C2.80262 29.0196 1.43262 33.5396 0.682617 37.8396C-1.02738 47.6596 0.602617 57.5396 4.15262 65.4296C6.55262 70.7696 10.0426 75.7896 14.2126 79.7296C15.4726 80.9196 17.0526 82.3896 18.5626 83.4396C20.1426 84.5396 21.7326 85.6296 23.5326 86.6196C31.5526 91.0396 40.9126 92.7596 50.2026 91.3796C52.6726 91.0096 52.6826 91.1196 52.9326 90.0296C53.1326 89.1496 53.2026 89.2396 53.1426 88.3096C53.0126 86.2896 51.3426 84.5696 49.9426 83.3396C48.5026 82.0696 47.0626 82.9096 44.7126 82.6996C43.5326 82.5896 42.2326 82.7796 40.9626 82.6596C38.4526 82.4196 39.9326 82.6796 37.3726 82.1396L34.1826 81.2396C32.5726 80.6696 29.9326 79.6596 28.5626 78.7996C26.8326 77.7196 25.0626 76.8596 23.4926 75.7296C23.0926 75.4396 22.6626 75.1596 22.2526 74.8896C21.8226 74.5996 21.5426 74.3496 21.1026 74.0396C20.3426 73.5096 19.5426 72.8896 18.8426 72.2996C17.8726 71.4796 15.4726 69.1096 14.7426 68.2396C13.8026 67.1196 12.0926 64.7696 11.3326 63.4996C10.6426 62.3496 10.4926 61.7896 9.99262 60.7496C8.49262 57.6196 8.14262 56.8196 7.31262 53.2996C7.04262 52.1496 6.47262 49.1096 6.46262 48.0596C6.45262 46.7196 6.56262 41.1996 6.76262 40.1896C6.96262 39.1396 7.17262 37.8996 7.44262 36.8896C7.51262 36.6296 7.63262 36.3796 7.70262 36.1196L8.31262 33.6796C8.71262 32.1496 9.06262 31.8096 9.40262 30.6696C9.81262 29.2696 12.7326 23.7696 13.5526 22.6896C13.8826 22.2596 14.0526 21.8696 14.3526 21.3996C15.1026 20.1996 16.0826 18.9796 16.9326 17.9096C17.2626 17.4996 17.5526 17.1996 17.8926 16.7896C18.5626 15.9696 19.2726 15.3896 19.8926 14.7196C20.2426 14.3396 20.4726 14.0296 20.8326 13.6696C21.5026 12.9996 22.2726 12.3896 22.9826 11.7396C23.5526 11.2196 24.7126 10.5396 25.4026 10.0796C26.2126 9.53965 27.0026 9.05965 27.8926 8.57965C29.7126 7.59965 31.6126 7.03964 33.7226 6.23964C39.0426 4.23964 42.2526 4.22964 47.8526 4.51964C49.8426 4.61964 52.4726 5.41964 54.4326 5.96964C60.1026 7.54964 65.9426 11.0396 70.2126 14.5696C77.6826 20.7496 82.0026 26.6196 86.0026 35.2696L87.0226 37.7996C87.0226 37.7996 87.0426 37.8396 87.0526 37.8596L87.1926 38.0996V38.1396Z" />
    <path
        d="M35.7526 66.8097C35.8326 66.0197 35.7726 53.3897 35.7726 52.1597C35.7826 48.9397 35.9126 48.4297 34.6326 45.9597C34.2126 45.1597 33.5026 44.8197 32.5726 44.3797C31.0426 43.6497 31.0626 43.3297 31.9926 42.5497C32.8526 41.8197 34.5626 40.8297 35.2626 40.2797C35.6426 39.9797 35.9026 39.7697 36.2726 39.4697C36.6026 39.1997 36.9026 38.8897 37.2426 38.6197C38.1726 37.8797 39.3526 37.1497 40.3026 36.2197C41.1926 35.4297 46.6726 30.5797 47.7826 29.9997C48.6926 29.5197 49.1226 29.0997 49.7226 29.5697C51.6426 31.0897 54.2026 32.5697 55.9126 34.2997C56.2726 34.6597 56.4626 34.8197 56.8826 35.1497C57.2526 35.4397 57.5526 35.6797 57.8726 35.9797C58.2126 36.2897 58.5526 36.4997 58.8426 36.8297L63.3926 40.5097C64.0626 41.0597 65.7326 41.8197 66.0026 42.5097C66.2526 43.1497 65.6926 43.2597 65.2626 43.4997C64.5726 43.8797 63.5926 44.5497 63.2926 45.1797C63.0326 45.7197 62.8826 47.6297 62.8826 48.3497C62.8726 50.7797 62.5726 65.9097 62.8026 66.3997C62.9426 66.6997 63.9026 66.9497 64.2526 67.0497C64.7526 67.1897 65.4926 67.2697 66.0426 67.2797C66.6826 67.2797 67.3326 67.2797 67.9326 67.1597C69.0026 66.9497 68.9226 66.7797 69.3726 66.6097L69.3926 46.6797C70.1126 46.5197 72.3226 46.7197 73.2426 46.6397C73.2826 46.6397 74.2126 46.4697 74.3526 46.4397C74.4426 46.4197 76.5826 44.9497 75.5426 43.1197C74.6626 41.5697 68.9626 37.5497 66.9626 36.1797C65.9826 35.5097 64.9426 34.7397 64.0026 34.0297C63.4526 33.6097 63.0526 33.3197 62.5326 32.8997C62.0526 32.5097 61.5726 32.1597 61.1226 31.7997C60.2026 31.0697 59.1926 30.2697 58.3226 29.5197L58.3026 25.0697H53.8526L53.8326 26.0497C53.0426 25.8297 52.3826 24.8097 51.6326 24.3897C50.1026 23.5297 47.1626 24.8097 45.7926 25.5797C45.3526 25.8197 44.9826 26.0497 44.5826 26.2797C43.1026 27.1197 40.2526 29.2997 39.0826 30.3097L35.9126 32.8597C34.7326 33.8497 31.7126 35.7997 30.3426 36.8297C28.3926 38.2597 21.9626 41.8897 23.5326 44.7097C23.6126 44.8497 24.2526 45.6397 24.3926 45.7597C24.6426 45.9797 25.2426 46.2997 25.7626 46.3197C26.3526 46.3397 26.7226 46.0797 27.3926 46.2097C27.9826 46.3297 28.6526 46.2197 29.2626 46.2797C29.2626 52.3997 29.1226 58.4997 29.1426 64.6697C29.1426 66.5097 28.9726 66.7397 30.0626 67.2097C31.1826 67.6997 31.6826 67.8097 33.1326 67.7697C34.5326 67.7397 34.9426 67.4397 35.7726 66.8297L35.7526 66.8097Z" />
    <path
        d="M53.0429 48.4397C52.1529 48.3797 48.0129 48.2297 47.4229 48.4397L50.6529 49.9397C51.1829 50.1497 51.7729 50.4797 52.3029 50.6297C54.3429 51.2197 53.5729 51.2897 53.8629 53.8497C53.9529 54.6197 54.0129 55.1697 54.1429 55.9097L54.8529 59.9097L55.1829 59.4097C55.6729 58.3297 56.2529 56.7697 56.5029 55.5997C56.8729 53.9197 57.0929 52.2297 57.0429 50.3197C57.0129 49.2397 56.6629 48.8097 55.7529 48.6697C54.8729 48.5397 53.9129 48.4897 53.0229 48.4297L53.0429 48.4397Z" />
</svg>