<svg width="20" height="21" viewBox="0 0 20 21" fill="currentColor"
    xmlns="http://www.w3.org/2000/svg">
    <path
        d="M19.8165 8.70578C19.7392 7.84524 19.2779 6.55784 18.9438 5.8548C18.4074 4.72491 17.5415 3.4535 16.6051 2.64317C16.2347 2.32132 16.0142 2.10905 15.5983 1.81231C13.0779 0.0181806 9.83468 -0.513668 6.83923 0.531766C6.38695 0.689266 5.93923 0.883288 5.54605 1.09101C4.68923 1.54524 4.09832 1.97894 3.38468 2.62034C3.02332 2.94676 2.69605 3.30284 2.37786 3.68632C1.82332 4.35513 1.43241 5.04447 1.03923 5.82513C0.636959 6.62404 0.325595 7.65578 0.15514 8.6373C-0.233496 10.8788 0.136958 13.134 0.943777 14.935C1.48923 16.1539 2.28241 17.2998 3.23014 18.1991C3.5165 18.4708 3.87559 18.8063 4.21877 19.046C4.57786 19.2971 4.93923 19.5459 5.34832 19.7719C7.17105 20.7808 9.29832 21.1734 11.4097 20.8584C11.971 20.7739 11.9733 20.799 12.0301 20.5502C12.0756 20.3494 12.0915 20.3699 12.0779 20.1576C12.0483 19.6965 11.6688 19.3039 11.3506 19.0232C11.0233 18.7333 10.696 18.925 10.162 18.8771C9.89377 18.852 9.59832 18.8953 9.30968 18.868C8.73923 18.8132 9.07559 18.8725 8.49377 18.7493L7.76877 18.5438C7.40286 18.4137 6.80286 18.1832 6.4915 17.9869C6.09832 17.7403 5.69605 17.544 5.33923 17.2861C5.24832 17.2199 5.15059 17.156 5.05741 17.0944C4.95968 17.0282 4.89605 16.9711 4.79605 16.9003C4.62332 16.7794 4.4415 16.6378 4.28241 16.5032C4.06195 16.316 3.5165 15.775 3.35059 15.5764C3.13695 15.3208 2.74832 14.7844 2.57559 14.4945C2.41877 14.232 2.38468 14.1041 2.27105 13.8668C1.93014 13.1523 1.8506 12.9697 1.66196 12.1662C1.6006 11.9037 1.47105 11.2098 1.46878 10.9701C1.4665 10.6643 1.4915 9.40426 1.53696 9.17371C1.58241 8.93404 1.63014 8.651 1.6915 8.42045C1.70741 8.3611 1.73469 8.30404 1.7506 8.24469L1.88923 7.68774C1.98014 7.3385 2.05969 7.26089 2.13696 7.00067C2.23014 6.6811 2.89377 5.42567 3.08014 5.17915C3.15514 5.081 3.19377 4.99197 3.26195 4.88469C3.43241 4.61078 3.65514 4.3323 3.84832 4.08806C3.92332 3.99447 3.98923 3.926 4.0665 3.83241C4.21877 3.64524 4.38014 3.51284 4.52104 3.35991C4.60059 3.27317 4.65286 3.20241 4.73468 3.12024C4.88695 2.9673 5.06195 2.82806 5.22332 2.67969C5.35286 2.561 5.6165 2.40578 5.77332 2.30078C5.95741 2.17753 6.13695 2.06796 6.33923 1.9584C6.75286 1.7347 7.18468 1.60688 7.66423 1.42427C8.87332 0.967745 9.60286 0.965462 10.8756 1.03166C11.3279 1.05448 11.9256 1.23709 12.371 1.36264C13.6597 1.72329 14.987 2.51991 15.9574 3.32567C17.6551 4.73632 18.637 6.07621 19.546 8.05067L19.7779 8.62817C19.7779 8.62817 19.7824 8.6373 19.7847 8.64187L19.8165 8.69665V8.70578Z" />
    <path
        d="M8.12581 15.2501C8.14399 15.0698 8.13035 12.1868 8.13035 11.9061C8.13262 11.1711 8.16217 11.0547 7.87126 10.4909C7.77581 10.3082 7.61444 10.2306 7.40308 10.1302C7.05535 9.96357 7.0599 9.89053 7.27126 9.71249C7.46671 9.54586 7.85535 9.31988 8.01444 9.19433C8.10081 9.12586 8.1599 9.07792 8.24399 9.00944C8.31899 8.94781 8.38717 8.87705 8.46444 8.81542C8.67581 8.64651 8.94399 8.47988 9.1599 8.2676C9.36217 8.08727 10.6076 6.9802 10.8599 6.84781C11.0667 6.73825 11.1644 6.64238 11.3008 6.74966C11.7372 7.09662 12.319 7.43444 12.7076 7.82933C12.7894 7.91151 12.8326 7.94803 12.9281 8.02336C13.0122 8.08955 13.0804 8.14433 13.1531 8.21281C13.2304 8.28357 13.3076 8.33151 13.3735 8.40683L14.4076 9.24683C14.5599 9.37238 14.9394 9.54586 15.0008 9.70336C15.0576 9.84944 14.9304 9.87455 14.8326 9.92933C14.6758 10.0161 14.4531 10.169 14.3849 10.3128C14.3258 10.4361 14.2917 10.8721 14.2917 11.0364C14.2894 11.5911 14.2213 15.0447 14.2735 15.1565C14.3054 15.225 14.5235 15.2821 14.6031 15.3049C14.7167 15.3368 14.8849 15.3551 15.0099 15.3574C15.1554 15.3574 15.3031 15.3574 15.4394 15.33C15.6826 15.2821 15.6644 15.2432 15.7667 15.2044L15.7713 10.6552C15.9349 10.6187 16.4372 10.6643 16.6463 10.6461C16.6554 10.6461 16.8667 10.6073 16.8985 10.6004C16.919 10.5959 17.4054 10.2603 17.169 9.8426C16.969 9.48879 15.6735 8.57118 15.219 8.25846C14.9963 8.10553 14.7599 7.92977 14.5463 7.7677C14.4213 7.67183 14.3304 7.60564 14.2122 7.50977C14.1031 7.42075 13.994 7.34086 13.8917 7.25868C13.6826 7.09205 13.4531 6.90944 13.2554 6.73825L13.2508 5.72249H12.2394L12.2349 5.94618C12.0554 5.89596 11.9054 5.66314 11.7349 5.56727C11.3872 5.37096 10.719 5.66314 10.4076 5.8389C10.3076 5.89368 10.2235 5.94618 10.1326 5.99868C9.79626 6.19042 9.14853 6.68803 8.88262 6.91857L8.16217 7.50064C7.89399 7.72662 7.20762 8.17173 6.89626 8.40683C6.45308 8.73325 4.99171 9.56183 5.34853 10.2055C5.36671 10.2375 5.51217 10.4178 5.54399 10.4452C5.60081 10.4954 5.73717 10.5685 5.85535 10.573C5.98944 10.5776 6.07353 10.5182 6.22581 10.5479C6.3599 10.5753 6.51217 10.5502 6.65081 10.5639C6.65081 11.9609 6.61899 13.3532 6.62353 14.7616C6.62353 15.1816 6.5849 15.2341 6.83262 15.3414C7.08717 15.4532 7.20081 15.4784 7.53035 15.4692C7.84853 15.4624 7.94171 15.3939 8.13035 15.2547L8.12581 15.2501Z" />
    <path
        d="M12.0546 11.0569C11.8523 11.0432 10.9114 11.009 10.7773 11.0569L11.5114 11.3993C11.6319 11.4472 11.766 11.5226 11.8864 11.5568C12.3501 11.6915 12.1751 11.7075 12.241 12.2918C12.2614 12.4676 12.2751 12.5931 12.3046 12.762L12.466 13.6751L12.541 13.5609C12.6523 13.3144 12.7842 12.9583 12.841 12.6913C12.9251 12.3078 12.9751 11.922 12.9637 11.486C12.9569 11.2395 12.8773 11.1414 12.6705 11.1094C12.4705 11.0797 12.2523 11.0683 12.0501 11.0546L12.0546 11.0569Z" />
</svg>
    